# xmcd
#
# Track frame offsets: 
#        182
#        12482
#        26012
#        38667
#        53462
#        72445
#        95730
#        113932
#        128350
#        148820
#        161435
#
# Disc length: 2404 seconds
#
# Revision: 5
# Processed by: cddbd v1.5.1PL0 Copyright (c) Steve Scherf et al.
# Submitted via: ExactAudioCopy v0.95a5
#
DISCID=8f09620b
DTITLE=Various Artist - Vintage Blues- Disk 1
DYEAR=1992
DGENRE=Blues
TTITLE0=Johnny Otis - Fanny Mae
TTITLE1=Big Joe Turner - You're Still My Baby
TTITLE2=Memphis Slim - Roll 'Em Slim
TTITLE3=Joe Williams - Blues In My Heart
TTITLE4=John Lee Hooker - I Feel Good
TTITLE5=Roy Gaines - Do You Want To Know What It Is
TTITLE6=Big Joe Turner - Diney Brown Blues
TTITLE7=Nyles Jones - Well Far Blues
TTITLE8=John Lee Hooker - Baby, Baby
TTITLE9=Eddie "Clean Head" Vinson - Clean Head Blues
TTITLE10=Big Daddy Rucker - Best Friend Blues
EXTD=LABEL =Madacy Music Group Inc.\nID =S-4617\nUPC =056775-461720
EXTD=\nCOPYRIGHT =1992
EXTT0=
EXTT1=
EXTT2=
EXTT3=
EXTT4=
EXTT5=
EXTT6=
EXTT7=
EXTT8=
EXTT9=
EXTT10=
PLAYORDER=
